<?xml version="1.0" encoding="utf-8"?><svg xmlns="http://www.w3.org/2000/svg" xmlns:xlink="http://www.w3.org/1999/xlink"><symbol viewBox="0 0 612 612" id="close" xmlns="http://www.w3.org/2000/svg"><path d="M612 36.004L576.521.603 306 270.608 35.478.603 0 36.004l270.522 270.007L0 575.997l35.478 35.4L306 341.411l270.521 269.986 35.479-35.4-270.541-269.986z"/></symbol><symbol viewBox="0 0 96.124 96.123" id="fb" xmlns="http://www.w3.org/2000/svg"><path d="M72.089.02L59.624 0C45.62 0 36.57 9.285 36.57 23.656v10.907H24.037a1.96 1.96 0 0 0-1.96 1.961v15.803a1.96 1.96 0 0 0 1.96 1.96H36.57v39.876a1.96 1.96 0 0 0 1.96 1.96h16.352a1.96 1.96 0 0 0 1.96-1.96V54.287h14.654a1.96 1.96 0 0 0 1.96-1.96l.006-15.803a1.963 1.963 0 0 0-1.961-1.961H56.842v-9.246c0-4.444 1.059-6.7 6.848-6.7l8.397-.003a1.96 1.96 0 0 0 1.959-1.96V1.98A1.96 1.96 0 0 0 72.089.02z"/></symbol><symbol viewBox="0 0 97.395 97.395" id="inst" xmlns="http://www.w3.org/2000/svg"><path d="M12.501 0h72.393c6.875 0 12.5 5.09 12.5 12.5v72.395c0 7.41-5.625 12.5-12.5 12.5H12.501C5.624 97.395 0 92.305 0 84.895V12.5C0 5.09 5.624 0 12.501 0zm58.447 10.821a4.395 4.395 0 0 0-4.383 4.385v10.495a4.396 4.396 0 0 0 4.383 4.385h11.008a4.398 4.398 0 0 0 4.385-4.385V15.206a4.397 4.397 0 0 0-4.385-4.385H70.948zm15.439 30.367h-8.572a28.486 28.486 0 0 1 1.25 8.355c0 16.2-13.556 29.332-30.275 29.332-16.718 0-30.272-13.132-30.272-29.332 0-2.904.438-5.708 1.25-8.355h-8.945v41.141a3.884 3.884 0 0 0 3.872 3.872h67.822a3.883 3.883 0 0 0 3.872-3.872V41.188h-.002zM48.789 29.533c-10.802 0-19.56 8.485-19.56 18.953s8.758 18.953 19.56 18.953c10.803 0 19.562-8.485 19.562-18.953s-8.758-18.953-19.562-18.953z"/></symbol><symbol viewBox="0 0 492 492" id="left-arrow" xmlns="http://www.w3.org/2000/svg"><path d="M198.608 246.104L382.664 62.04c5.068-5.056 7.856-11.816 7.856-19.024 0-7.212-2.788-13.968-7.856-19.032l-16.128-16.12C361.476 2.792 354.712 0 347.504 0s-13.964 2.792-19.028 7.864L109.328 227.008c-5.084 5.08-7.868 11.868-7.848 19.084-.02 7.248 2.76 14.028 7.848 19.112l218.944 218.932c5.064 5.072 11.82 7.864 19.032 7.864 7.208 0 13.964-2.792 19.032-7.864l16.124-16.12c10.492-10.492 10.492-27.572 0-38.06L198.608 246.104z"/></symbol><symbol viewBox="0 0 388.8 388.8" id="med" xmlns="http://www.w3.org/2000/svg"><path d="M262.48 182.856h-32.64v-32.64c.044-6.583-5.257-11.956-11.84-12h-47.12c-6.583 0-11.92 5.337-11.92 11.92v32.64H126.4c-6.583-.044-11.956 5.256-12 11.839v47.121c0 6.583 5.337 11.92 11.92 11.92h32.64v32.56c-.044 6.583 5.257 11.956 11.84 12h47.04c6.583 0 11.92-5.337 11.92-11.92v-32.64h32.64c6.583.044 11.956-5.257 12-11.84v-47.04c0-6.583-5.336-11.92-11.92-11.92zm-4.08 54.8h-36.56a8 8 0 0 0-8 8v36.56h-38.88v-36.56a8 8 0 0 0-8-8H130.4v-38.8h36.56a8 8 0 0 0 8-8v-36.64h38.8v36.56a8 8 0 0 0 8 8h36.64v38.88z"/><path d="M333.6 78.376h-65.92v-28.16c.415-12.85-9.666-23.604-22.516-24.019a23.387 23.387 0 0 0-1.964.019h-97.6c-12.84-.669-23.791 9.197-24.461 22.036a22.97 22.97 0 0 0-.019 1.964v28H55.2c-25.44 0-55.2 14.48-55.2 55.2v174c0 40.72 29.76 55.2 55.2 55.2h278.4c25.44 0 55.2-14.48 55.2-55.2v-173.84c0-40.72-29.68-55.2-55.2-55.2zm-196.48-28.16c0-2.32 0-8.56 8.56-8.56h97.52c8.56 0 8.56 6.16 8.56 8.56v28H137.12v-28zm235.68 257.2c0 35.36-27.36 39.2-39.2 39.2H55.2c-11.76 0-39.2-3.84-39.2-39.2v-173.84c0-35.36 27.36-39.2 39.2-39.2h278.4c11.76 0 39.2 3.84 39.2 39.2v173.84z"/></symbol><symbol viewBox="-27 1 511 511.999" id="meditation" xmlns="http://www.w3.org/2000/svg"><path d="M453.266 380.566l-18.141-28.629c-2.957-4.667-9.133-6.05-13.8-3.097-4.665 2.957-6.048 9.137-3.095 13.8l18.145 28.633c3.227 5.094 2.453 11.864-1.84 16.102a12.882 12.882 0 0 1-10.223 3.668 12.902 12.902 0 0 1-9.406-5.434l-78.199-111.214-31.004-73.961v-8.692c0-5.52-4.476-10-10-10-5.52 0-10 4.48-10 10v133.262H173.086V211.742c0-5.52-4.477-10-10-10-5.524 0-10 4.48-10 10v8.793l-30.957 73.86-78.203 111.214a12.89 12.89 0 0 1-9.406 5.43 12.878 12.878 0 0 1-10.223-3.668c-4.293-4.234-5.067-11.004-1.84-16.101l69.496-109.672a9.926 9.926 0 0 0 1.035-2.164l29.719-88.38A76.347 76.347 0 0 1 195.133 139h68.566a76.341 76.341 0 0 1 72.426 52.055l29.723 88.379a9.912 9.912 0 0 0 1.03 2.164l13.579 21.433a9.997 9.997 0 0 0 13.8 3.094c4.665-2.957 6.052-9.137 3.095-13.8l-12.934-20.41-29.336-87.235c-12.02-35.75-43.512-60.817-80.316-65.043 10.882-11.32 17.597-26.68 17.597-43.586V62.945C292.363 28.238 264.125 0 229.414 0c-34.707 0-62.945 28.238-62.945 62.945v13.106c0 16.906 6.71 32.265 17.597 43.586-36.804 4.226-68.296 29.293-80.32 65.043l-29.332 87.234L5.563 380.566c-8.231 12.985-6.258 30.246 4.687 41.043a32.822 32.822 0 0 0 18.035 9.086c-.004.012-.008.02-.008.028a60.046 60.046 0 0 0 .57 43.62C38.216 497.536 60.669 512 84.688 512c5.172 0 10.422-.672 15.626-2.074l129.101-34.75 129.102 34.75A59.98 59.98 0 0 0 374.14 512c24.011-.004 46.468-14.469 55.836-37.656a60.066 60.066 0 0 0 .562-43.649 32.845 32.845 0 0 0 18.04-9.086c10.944-10.793 12.917-28.054 4.687-41.043zM186.469 62.946c0-23.68 19.265-42.946 42.949-42.946 23.68 0 42.945 19.266 42.945 42.945v13.106c0 23.683-19.265 42.949-42.945 42.949-23.684 0-42.95-19.27-42.95-42.95zm132.207 240.179a9.89 9.89 0 0 0 1.043 1.887l56.402 80.21-70.418-35.906v-77.144zm-179.563 1.887a9.852 9.852 0 0 0 1.04-1.887l12.933-30.852v77.067l-70.379 35.883zm272.325 161.843c-7.606 18.82-28.122 29.036-47.723 23.762l-101.168-27.234c8.105-6.39 13.156-16.274 13.156-27.063 0-.375-.02-.746-.031-1.117l62.516 14.766c.773.183 1.546.27 2.308.27 4.531 0 8.637-3.102 9.723-7.704 1.27-5.375-2.059-10.762-7.434-12.031L268 412.84a10.01 10.01 0 0 0-1.785-.246 34.953 34.953 0 0 0-3.582-3.282c-8.305-6.57-18.98-8.94-29.29-6.511l-117.296 27.703c-5.375 1.27-8.703 6.656-7.434 12.031s6.653 8.703 12.032 7.434l117.293-27.703a14.35 14.35 0 0 1 12.285 2.73 14.364 14.364 0 0 1 5.48 11.324c0 6.52-4.398 12.254-10.691 13.95l-17.805 4.792c-.21.047-.414.106-.617.165L95.117 490.613c-19.601 5.278-40.117-4.937-47.722-23.758-7.86-19.464.312-41.335 19.011-50.87l99.989-50.981h126.043l99.988 50.98c18.699 9.54 26.875 31.407 19.012 50.871zm0 0"/><path d="M399.621 333.781a9.973 9.973 0 0 0 7.082 2.938c2.555 0 5.11-.973 7.063-2.922l.37-.367c3.91-3.903 3.919-10.235.016-14.145-3.898-3.91-10.23-3.918-14.14-.02l-.371.372c-3.91 3.902-3.918 10.234-.02 14.144zm0 0"/></symbol><symbol viewBox="0 0 512 512" id="nature" xmlns="http://www.w3.org/2000/svg"><path d="M504.498 497h-12.031L360.273 245.205l-.031-.059-39.621-75.467a7.502 7.502 0 0 0-13.282 0l-26.031 49.585-51.792-99.267a7.5 7.5 0 0 0-13.298 0l-65.293 125.144-.038.072L19.521 497H7.503a7.5 7.5 0 0 0-7.5 7.5 7.5 7.5 0 0 0 7.5 7.5H74.46a7.5 7.5 0 0 0 7.5-7.5 7.5 7.5 0 0 0-7.5-7.5H36.44l123.031-235.808 33.244 33.244a7.5 7.5 0 0 0 10.608 0l36.11-36.112 19.548 19.546a7.5 7.5 0 0 0 10.606 0l16.678-16.678.661 1.266.028.054 41.631 79.792a7.501 7.501 0 0 0 13.299-6.939l-39.107-74.955 2.086-2.086 19.548 19.546c1.464 1.465 3.384 2.197 5.303 2.197s3.839-.732 5.304-2.197l16.698-16.698L475.524 497H362.899v-18.138h25.634a7.502 7.502 0 0 0 6.964-10.285l-12.454-31.128h5.49a7.5 7.5 0 0 0 6.853-10.546l-33.135-74.548a7.502 7.502 0 0 0-13.708 0l-33.132 74.548a7.5 7.5 0 0 0 6.853 10.546h5.489L315.3 468.577a7.501 7.501 0 0 0 6.964 10.285h25.633V497H164.101v-18.138h25.634a7.502 7.502 0 0 0 6.964-10.285l-12.454-31.128h5.49a7.5 7.5 0 0 0 6.853-10.546l-33.135-74.548a7.502 7.502 0 0 0-13.708 0l-33.132 74.548a7.5 7.5 0 0 0 6.853 10.546h5.489l-12.453 31.128a7.501 7.501 0 0 0 6.964 10.285h25.635V497h-44.673a7.5 7.5 0 0 0-7.5 7.5 7.5 7.5 0 0 0 7.5 7.5h400.07a7.5 7.5 0 0 0 0-15zM264.283 261.96l-19.548-19.546a7.498 7.498 0 0 0-10.606 0l-36.11 36.112-31.274-31.274 56.124-107.57 56.124 107.57-14.71 14.708zm65.428 0l-19.548-19.546a7.501 7.501 0 0 0-10.607 0l-4.055 4.056-.656-1.258-.036-.068-5.057-9.693 24.228-46.15 30.43 57.961-14.699 14.698zM134.548 463.862l12.453-31.128a7.502 7.502 0 0 0-6.965-10.285h-5.026l21.591-48.582 21.594 48.582h-5.027a7.502 7.502 0 0 0-6.964 10.285l12.454 31.128h-44.11zm198.798 0l12.453-31.128a7.502 7.502 0 0 0-6.965-10.285h-5.026l21.591-48.582 21.594 48.582h-5.027a7.502 7.502 0 0 0-6.964 10.285l12.454 31.128h-44.11zM297.417 0C270.443 0 248.5 21.944 248.5 48.918c0 26.973 21.944 48.917 48.917 48.917 26.974 0 48.918-21.944 48.918-48.917C346.333 21.944 324.39 0 297.417 0zm0 82.835c-18.702 0-33.917-15.215-33.917-33.917C263.5 30.215 278.714 15 297.417 15c18.702 0 33.918 15.215 33.918 33.918-.001 18.702-15.217 33.917-33.918 33.917zM206.3 91.118h-26.336c-3.53-18.834-20.086-33.134-39.928-33.134a40.45 40.45 0 0 0-17.404 3.908A48.94 48.94 0 0 0 90.334 49.7C65.91 49.7 45.61 67.692 41.99 91.118H24.07a7.5 7.5 0 0 0-7.5 7.5 7.5 7.5 0 0 0 7.5 7.5h49.698a7.5 7.5 0 0 0 7.5-7.5 7.5 7.5 0 0 0-7.5-7.5H57.261C60.686 76.014 74.209 64.7 90.334 64.7a33.943 33.943 0 0 1 25.432 11.491 7.5 7.5 0 0 0 9.85 1.233 25.484 25.484 0 0 1 14.42-4.44c11.526 0 21.297 7.648 24.512 18.134H156.6a7.5 7.5 0 0 0-7.5 7.5 7.5 7.5 0 0 0 7.5 7.5h49.7a7.5 7.5 0 0 0 7.5-7.5 7.5 7.5 0 0 0-7.5-7.5zm289.915 33.135h-26.336c-3.53-18.834-20.086-33.134-39.928-33.134a40.447 40.447 0 0 0-17.404 3.908 48.936 48.936 0 0 0-32.297-12.192c-24.425 0-44.724 17.992-48.344 41.417h-17.921a7.5 7.5 0 0 0-7.5 7.5 7.5 7.5 0 0 0 7.5 7.5h49.697a7.5 7.5 0 0 0 7.5-7.5 7.5 7.5 0 0 0-7.5-7.5h-16.505c3.424-15.104 16.947-26.417 33.072-26.417a33.943 33.943 0 0 1 25.432 11.491 7.5 7.5 0 0 0 9.85 1.233 25.482 25.482 0 0 1 14.42-4.44c11.526 0 21.297 7.647 24.512 18.134h-7.947c-4.143 0-7.5 3.358-7.5 7.5s3.357 7.5 7.5 7.5h49.699a7.5 7.5 0 0 0 7.5-7.5 7.5 7.5 0 0 0-7.5-7.5z"/></symbol><symbol viewBox="0 0 486.392 486.392" id="pinter" xmlns="http://www.w3.org/2000/svg"><path d="M430.149 135.248C416.865 39.125 321.076-9.818 218.873 1.642 138.071 10.701 57.512 76.03 54.168 169.447c-2.037 57.029 14.136 99.801 68.399 111.84 23.499-41.586-7.569-50.676-12.433-80.802C90.222 77.367 252.16-6.718 336.975 79.313c58.732 59.583 20.033 242.77-74.57 223.71-90.621-18.179 44.383-164.005-27.937-192.611-58.793-23.286-90.013 71.135-62.137 118.072-16.355 80.711-51.557 156.709-37.3 257.909 46.207-33.561 61.802-97.734 74.57-164.704 23.225 14.136 35.659 28.758 65.268 31.038 109.195 8.48 170.267-109.014 155.28-217.479z"/></symbol><symbol viewBox="0 0 492.004 492.004" id="right-arrow" xmlns="http://www.w3.org/2000/svg"><path d="M382.678 226.804L163.73 7.86C158.666 2.792 151.906 0 144.698 0s-13.968 2.792-19.032 7.86l-16.124 16.12c-10.492 10.504-10.492 27.576 0 38.064L293.398 245.9l-184.06 184.06c-5.064 5.068-7.86 11.824-7.86 19.028 0 7.212 2.796 13.968 7.86 19.04l16.124 16.116c5.068 5.068 11.824 7.86 19.032 7.86s13.968-2.792 19.032-7.86L382.678 265c5.076-5.084 7.864-11.872 7.848-19.088.016-7.244-2.772-14.028-7.848-19.108z"/></symbol><symbol viewBox="0 0 511.999 511.999" id="sun" xmlns="http://www.w3.org/2000/svg"><path d="M85.636 67.25c-26.754 0-48.522 21.767-48.522 48.522 0 26.756 21.767 48.522 48.522 48.522 26.756 0 48.523-21.767 48.523-48.522S112.392 67.25 85.636 67.25zm.001 81.993c-18.456 0-33.472-15.014-33.472-33.471 0-18.457 15.015-33.471 33.472-33.471s33.472 15.015 33.472 33.471c0 18.456-15.016 33.471-33.472 33.471zm0-119.108a7.524 7.524 0 0 0-7.525 7.525v15.138c0 4.156 3.368 7.525 7.525 7.525s7.525-3.369 7.525-7.525V37.66a7.524 7.524 0 0 0-7.525-7.525zm60.556 25.082a7.528 7.528 0 0 0-10.644 0l-10.704 10.704a7.525 7.525 0 0 0 5.322 12.846 7.507 7.507 0 0 0 5.322-2.203l10.704-10.704a7.526 7.526 0 0 0 0-10.643zm17.556 53.03h-15.137a7.524 7.524 0 0 0-7.525 7.525 7.524 7.524 0 0 0 7.525 7.525h15.137a7.524 7.524 0 0 0 7.525-7.525 7.524 7.524 0 0 0-7.525-7.525zm-17.556 57.437l-10.704-10.703a7.527 7.527 0 0 0-10.644 10.642l10.704 10.704c1.47 1.469 3.396 2.204 5.322 2.204s3.852-.734 5.322-2.204a7.526 7.526 0 0 0 0-10.643zm-60.556 5.538a7.524 7.524 0 0 0-7.525 7.525v15.138c0 4.156 3.368 7.525 7.525 7.525s7.525-3.369 7.525-7.525v-15.138a7.524 7.524 0 0 0-7.525-7.525zM46.43 154.981a7.526 7.526 0 0 0-10.643 0l-10.704 10.703a7.525 7.525 0 0 0 5.321 12.847 7.504 7.504 0 0 0 5.322-2.204l10.704-10.704a7.526 7.526 0 0 0 0-10.642zm-23.768-46.734H7.525A7.524 7.524 0 0 0 0 115.772a7.524 7.524 0 0 0 7.525 7.525h15.137a7.524 7.524 0 0 0 7.525-7.525 7.524 7.524 0 0 0-7.525-7.525zM46.43 65.921L35.725 55.217A7.526 7.526 0 1 0 25.082 65.86l10.704 10.704a7.505 7.505 0 0 0 5.322 2.203 7.526 7.526 0 0 0 5.322-12.846zM508.356 457.18c-13.116-8.896-28.324-12.925-43.34-12.113-13.861-19.093-40.008-35.461-76.032-47.525-22.361-7.488-47.316-12.893-73.849-16.102l53.915-135.271c8.135 5.875 15.235 12.853 21.038 20.747 1.918 2.61 4.877 4.087 8.141 3.292 17.807-3.229 36.69-1.16 54.628 5.989 18.073 7.203 33.291 18.807 44.008 33.557a7.524 7.524 0 0 0 13.537-3.359c.284-1.991 6.799-49.36-8.723-100.965a7.523 7.523 0 1 0-14.411 4.334c9.06 30.124 10.049 59.251 9.493 77.019-10.74-10.394-23.739-18.752-38.332-24.568-16.59-6.612-33.947-9.423-50.843-8.3.128-.389.244-.769.37-1.156 5.88-17.964 10.265-36.477 12.422-55.27 1.973-17.197 2.157-34.568-.008-51.756-1.254-9.954-3.388-19.799-6.45-29.355-.022-.069-.044-.143-.067-.212 27.002 14.629 47.758 36.185 61.846 64.284a7.525 7.525 0 1 0 13.453-6.746c-18.674-37.246-47.974-64.037-87.111-79.638-53.828-21.451-109.852-14.395-162.006 20.406-38.932 25.977-61.729 57.839-62.681 59.182a7.523 7.523 0 0 0 7.517 11.746c17.927-3.333 36.955-1.288 55.027 5.915 17.81 7.099 32.849 18.471 43.541 32.917 2.08 2.81 5.114 4.538 8.675 3.48 9.557-1.694 19.418-1.862 29.274-.544l-60.123 150.855c-1.517-.013-3.029-.04-4.551-.04-34.684 0-67.831 3.455-98.52 10.269a7.524 7.524 0 0 0-5.714 8.978 7.52 7.52 0 0 0 8.977 5.715c29.202-6.484 62.142-9.911 95.257-9.911 15.696 0 31.402.746 47.022 2.298.056.005.111.004.168.008 29.047 2.88 56.27 8.423 80.299 16.471 28.686 9.607 50.833 22.267 63.831 36.298a71.075 71.075 0 0 0-18.818 9.069c-18.905 12.821-43.336 12.821-62.242 0-24.039-16.303-55.103-16.302-79.139 0-18.905 12.821-43.336 12.821-62.242 0-24.038-16.303-55.102-16.302-79.139 0-18.905 12.821-43.336 12.821-62.242 0a71.024 71.024 0 0 0-18.817-9.069c12.981-14.011 35.088-26.657 63.717-36.259a7.526 7.526 0 0 0-4.785-14.27c-35.961 12.06-62.068 28.415-75.913 47.485-15.017-.812-30.224 3.219-43.34 12.113A7.525 7.525 0 0 0 3.07 467.63a7.524 7.524 0 0 0 10.452 2.005c11.17-7.575 24.27-10.672 37.019-9.295.458.099.92.162 1.384.173 8.348 1.116 16.51 4.151 23.841 9.123 24.036 16.301 55.099 16.303 79.138 0 18.907-12.822 43.339-12.821 62.243 0 24.037 16.301 55.1 16.303 79.138 0 18.906-12.822 43.338-12.821 62.243 0 12.019 8.151 25.794 12.227 39.57 12.227 13.775 0 27.55-4.076 39.57-12.227 7.314-4.96 15.456-7.993 23.785-9.115a7.439 7.439 0 0 0 1.472-.184c12.739-1.368 25.826 1.729 36.986 9.298a7.524 7.524 0 1 0 8.445-12.455zM302.325 211.403c.08-.17.163-.338.244-.508 7.01-14.674 15.187-28.858 24.726-42.04 2.332-3.222 1.664-8.085-1.684-10.508-3.275-2.371-8.144-1.584-10.509 1.685-7.659 10.583-14.464 21.784-20.571 33.329-2.206 4.172-4.447 8.394-6.339 12.721l-.101.21c-11.496-12.441-26.025-22.34-42.62-28.952-14.597-5.818-29.789-8.691-44.735-8.535 10.047-11.299 26.551-27.793 48.035-42.063 21.302-14.15 43.29-23.387 65.35-27.454 21.343-3.934 42.879-3.011 64.249 2.73l-.264.146c-11.561 6.345-22.28 14.174-32.012 23.063-3.796 3.467-7.499 7.031-11.047 10.75a7.526 7.526 0 0 0 10.893 10.387c9.646-10.118 20.538-19.371 32.428-26.852 5.48-3.449 11.2-6.565 17.173-9.077 1.569 3.559 3.61 8.828 5.527 15.729 9.074 32.689 6.622 67.965-1.332 100.608a283.609 283.609 0 0 1-5.93 20.847l-.071.216c-10.24-10.834-22.815-19.68-37.052-26.047l-.585-.26c-16.838-7.432-35.368-11.141-53.773-10.125zm-2.749 168.417c-3.489-.302-7.002-.56-10.535-.788a421.204 421.204 0 0 0-11.728-.624l59.02-148.079a105.644 105.644 0 0 1 10.531 3.633c.559.227 9.182 4.177 9.166 4.217L299.576 379.82z"/></symbol><symbol viewBox="0 0 612 612" id="tw" xmlns="http://www.w3.org/2000/svg"><path d="M612 116.258a250.714 250.714 0 0 1-72.088 19.772c25.929-15.527 45.777-40.155 55.184-69.411-24.322 14.379-51.169 24.82-79.775 30.48-22.907-24.437-55.49-39.658-91.63-39.658-69.334 0-125.551 56.217-125.551 125.513 0 9.828 1.109 19.427 3.251 28.606-104.326-5.24-196.835-55.223-258.75-131.174-10.823 18.51-16.98 40.078-16.98 63.101 0 43.559 22.181 81.993 55.835 104.479a125.556 125.556 0 0 1-56.867-15.756v1.568c0 60.806 43.291 111.554 100.693 123.104-10.517 2.83-21.607 4.398-33.08 4.398-8.107 0-15.947-.803-23.634-2.333 15.985 49.907 62.336 86.199 117.253 87.194-42.947 33.654-97.099 53.655-155.916 53.655-10.134 0-20.116-.612-29.944-1.721 55.567 35.681 121.536 56.485 192.438 56.485 230.948 0 357.188-191.291 357.188-357.188l-.421-16.253c24.666-17.593 46.005-39.697 62.794-64.861z"/></symbol></svg>